<svg width="3517" height="639" viewBox="0 0 3517 639" fill="none" xmlns="http://www.w3.org/2000/svg">
<path d="M290.4 421C290.4 453.533 286.4 483 278.4 509.4C270.4 535.533 258.267 558.067 242 577C226 595.667 205.867 610.067 181.6 620.2C157.333 630.333 129.067 635.4 96.8 635.4C82.1333 635.4 67.6 634.467 53.2 632.6C39.0667 631 24.1333 628.333 8.4 624.6C9.46667 612.867 10.5333 601.133 11.6 589.4C12.6667 577.667 13.7333 565.933 14.8 554.2C15.6 547.8 18.1333 542.733 22.4 539C26.6667 535 32.8 533 40.8 533C45.3333 533 51.0667 533.8 58 535.4C65.2 537 74 537.8 84.4 537.8C98.8 537.8 111.333 535.8 122 531.8C132.667 527.8 141.6 521.267 148.8 512.2C156 503.133 161.333 491.4 164.8 477C168.533 462.333 170.4 444.6 170.4 423.8V48.6H290.4V421ZM564.413 210.2C595.346 210.2 623.479 215.133 648.813 225C674.146 234.867 695.879 249 714.013 267.4C732.146 285.533 746.146 307.667 756.013 333.8C765.879 359.933 770.813 389.4 770.813 422.2C770.813 455 765.879 484.6 756.013 511C746.146 537.133 732.146 559.4 714.013 577.8C695.879 596.2 674.146 610.333 648.813 620.2C623.479 630.067 595.346 635 564.413 635C533.213 635 504.813 630.067 479.213 620.2C453.879 610.333 432.146 596.2 414.013 577.8C395.879 559.4 381.746 537.133 371.613 511C361.746 484.6 356.813 455 356.813 422.2C356.813 389.4 361.746 359.933 371.613 333.8C381.746 307.667 395.879 285.533 414.013 267.4C432.146 249 453.879 234.867 479.213 225C504.813 215.133 533.213 210.2 564.413 210.2ZM564.413 552.2C595.879 552.2 619.213 541.4 634.413 519.8C649.613 497.933 657.213 465.533 657.213 422.6C657.213 379.933 649.613 347.8 634.413 326.2C619.213 304.333 595.879 293.4 564.413 293.4C532.146 293.4 508.413 304.333 493.213 326.2C478.013 347.8 470.413 379.933 470.413 422.6C470.413 465.533 478.013 497.933 493.213 519.8C508.413 541.4 532.146 552.2 564.413 552.2ZM950.531 520.2C960.931 532.2 972.131 540.6 984.131 545.4C996.398 550.2 1009.06 552.6 1022.13 552.6C1035.73 552.6 1048 550.2 1058.93 545.4C1070.13 540.333 1079.73 532.467 1087.73 521.8C1095.73 510.867 1101.86 496.733 1106.13 479.4C1110.4 462.067 1112.53 441.133 1112.53 416.6C1112.53 394.733 1110.8 376.2 1107.33 361C1103.86 345.533 1098.66 332.867 1091.73 323C1085.06 313.133 1076.8 305.933 1066.93 301.4C1057.06 296.867 1045.6 294.6 1032.53 294.6C1015.2 294.6 1000.13 298.467 987.331 306.2C974.798 313.667 962.531 324.733 950.531 339.4V520.2ZM950.531 264.2C966.798 247.933 984.798 234.867 1004.53 225C1024.26 215.133 1046.4 210.2 1070.93 210.2C1094.66 210.2 1116 215 1134.93 224.6C1154.13 233.933 1170.4 247.4 1183.73 265C1197.33 282.6 1207.73 303.933 1214.93 329C1222.4 353.8 1226.13 381.667 1226.13 412.6C1226.13 445.933 1221.86 476.333 1213.33 503.8C1205.06 531 1193.2 554.333 1177.73 573.8C1162.26 593.267 1143.73 608.333 1122.13 619C1100.8 629.667 1076.93 635 1050.53 635C1037.73 635 1026.26 633.667 1016.13 631C1006 628.6 996.665 625.133 988.131 620.6C979.598 616.067 971.731 610.733 964.531 604.6C957.331 598.2 950.531 591.133 944.131 583.4L939.731 608.2C937.865 615.933 934.798 621.4 930.531 624.6C926.265 627.533 920.531 629 913.331 629H840.131V32.6H950.531V264.2Z" fill="#00507A"/>
<path d="M1508.36 337.4C1545.96 337.4 1573.43 328.333 1590.76 310.2C1608.36 292.067 1617.16 267.267 1617.16 235.8C1617.16 221.4 1614.9 208.333 1610.36 196.6C1606.1 184.6 1599.43 174.467 1590.36 166.2C1581.56 157.667 1570.36 151.133 1556.76 146.6C1543.16 142.067 1527.03 139.8 1508.36 139.8H1432.36V337.4H1508.36ZM1508.36 48.6C1548.1 48.6 1582.36 53.2666 1611.16 62.6C1640.23 71.9333 1664.1 85 1682.76 101.8C1701.43 118.333 1715.16 138.067 1723.96 161C1733.03 183.933 1737.56 208.867 1737.56 235.8C1737.56 264.333 1732.9 290.467 1723.56 314.2C1714.23 337.933 1700.1 358.333 1681.16 375.4C1662.23 392.467 1638.36 405.8 1609.56 415.4C1580.76 424.733 1547.03 429.4 1508.36 429.4H1432.36V629H1312.36V48.6H1508.36ZM1966.76 210.2C1997.69 210.2 2025.82 215.133 2051.16 225C2076.49 234.867 2098.22 249 2116.36 267.4C2134.49 285.533 2148.49 307.667 2158.36 333.8C2168.22 359.933 2173.16 389.4 2173.16 422.2C2173.16 455 2168.22 484.6 2158.36 511C2148.49 537.133 2134.49 559.4 2116.36 577.8C2098.22 596.2 2076.49 610.333 2051.16 620.2C2025.82 630.067 1997.69 635 1966.76 635C1935.56 635 1907.16 630.067 1881.56 620.2C1856.22 610.333 1834.49 596.2 1816.36 577.8C1798.22 559.4 1784.09 537.133 1773.96 511C1764.09 484.6 1759.16 455 1759.16 422.2C1759.16 389.4 1764.09 359.933 1773.96 333.8C1784.09 307.667 1798.22 285.533 1816.36 267.4C1834.49 249 1856.22 234.867 1881.56 225C1907.16 215.133 1935.56 210.2 1966.76 210.2ZM1966.76 552.2C1998.22 552.2 2021.56 541.4 2036.76 519.8C2051.96 497.933 2059.56 465.533 2059.56 422.6C2059.56 379.933 2051.96 347.8 2036.76 326.2C2021.56 304.333 1998.22 293.4 1966.76 293.4C1934.49 293.4 1910.76 304.333 1895.56 326.2C1880.36 347.8 1872.76 379.933 1872.76 422.6C1872.76 465.533 1880.36 497.933 1895.56 519.8C1910.76 541.4 1934.49 552.2 1966.76 552.2ZM2346.08 284.6C2359.14 261.133 2374.21 242.6 2391.28 229C2408.34 215.4 2428.34 208.6 2451.28 208.6C2469.94 208.6 2485.14 213 2496.88 221.8L2489.68 303.4C2488.34 308.733 2486.21 312.467 2483.28 314.6C2480.61 316.467 2476.88 317.4 2472.08 317.4C2467.81 317.4 2461.68 316.867 2453.68 315.8C2445.68 314.467 2438.21 313.8 2431.28 313.8C2421.14 313.8 2412.08 315.267 2404.08 318.2C2396.34 321.133 2389.41 325.267 2383.28 330.6C2377.14 335.933 2371.54 342.467 2366.48 350.2C2361.68 357.933 2357.14 366.733 2352.88 376.6V629H2242.48V216.6H2307.68C2318.88 216.6 2326.61 218.6 2330.88 222.6C2335.14 226.6 2338.21 233.533 2340.08 243.4L2346.08 284.6ZM2686.44 635.4C2667.77 635.4 2651.24 632.733 2636.84 627.4C2622.44 621.8 2610.3 613.933 2600.44 603.8C2590.57 593.667 2583.1 581.4 2578.04 567C2572.97 552.6 2570.44 536.333 2570.44 518.2V295.8H2531.64C2525.77 295.8 2520.7 293.933 2516.44 290.2C2512.44 286.467 2510.44 280.867 2510.44 273.4V230.2L2576.44 218.2L2598.84 111.4C2601.77 99.4 2609.9 93.4 2623.24 93.4H2680.84V219H2787.24V295.8H2680.84V511C2680.84 522.467 2683.5 531.533 2688.84 538.2C2694.44 544.867 2702.3 548.2 2712.44 548.2C2717.77 548.2 2722.3 547.667 2726.04 546.6C2729.77 545.267 2732.97 543.933 2735.64 542.6C2738.3 541 2740.7 539.667 2742.84 538.6C2745.24 537.267 2747.64 536.6 2750.04 536.6C2753.24 536.6 2755.9 537.4 2758.04 539C2760.17 540.333 2762.3 542.733 2764.44 546.2L2797.64 599C2782.44 611 2765.24 620.067 2746.04 626.2C2726.84 632.333 2706.97 635.4 2686.44 635.4ZM3061.98 456.6C3035.05 457.933 3012.65 460.333 2994.78 463.8C2976.91 467 2962.65 471.267 2951.98 476.6C2941.58 481.933 2934.11 488.067 2929.58 495C2925.31 501.667 2923.18 509 2923.18 517C2923.18 533 2927.58 544.333 2936.38 551C2945.45 557.667 2957.98 561 2973.98 561C2992.38 561 3008.25 557.8 3021.58 551.4C3035.18 544.733 3048.65 534.467 3061.98 520.6V456.6ZM2837.18 273.8C2861.45 251.933 2888.25 235.667 2917.58 225C2946.91 214.067 2978.65 208.6 3012.78 208.6C3037.31 208.6 3059.18 212.6 3078.38 220.6C3097.85 228.6 3114.25 239.8 3127.58 254.2C3141.18 268.333 3151.58 285.267 3158.78 305C3165.98 324.733 3169.58 346.333 3169.58 369.8V629H3119.18C3108.78 629 3100.78 627.533 3095.18 624.6C3089.85 621.667 3085.45 615.533 3081.98 606.2L3073.18 579.8C3062.78 588.867 3052.65 596.867 3042.78 603.8C3033.18 610.733 3023.18 616.6 3012.78 621.4C3002.38 625.933 2991.18 629.4 2979.18 631.8C2967.45 634.2 2954.25 635.4 2939.58 635.4C2921.45 635.4 2904.91 633 2889.98 628.2C2875.05 623.4 2862.11 616.333 2851.18 607C2840.51 597.4 2832.25 585.533 2826.38 571.4C2820.51 557.267 2817.58 541 2817.58 522.6C2817.58 507.4 2821.45 492.2 2829.18 477C2836.91 461.8 2850.11 448.067 2868.78 435.8C2887.71 423.267 2912.78 413 2943.98 405C2975.45 396.733 3014.78 392.067 3061.98 391V369.8C3061.98 343.933 3056.51 325 3045.58 313C3034.65 300.733 3018.91 294.6 2998.38 294.6C2983.18 294.6 2970.51 296.467 2960.38 300.2C2950.25 303.667 2941.31 307.533 2933.58 311.8C2926.11 315.8 2919.05 319.667 2912.38 323.4C2905.71 326.867 2897.98 328.6 2889.18 328.6C2881.45 328.6 2874.91 326.733 2869.58 323C2864.51 319 2860.25 314.333 2856.78 309L2837.18 273.8ZM3366.96 32.6V629H3256.56V32.6H3366.96Z" fill="#F57F17"/>
<rect x="3457" y="569" width="60" height="60.0083" fill="#F57F17"/>
</svg>
