<svg width="3499" height="628" viewBox="0 0 3499 628" fill="none" xmlns="http://www.w3.org/2000/svg">
<path d="M290.4 413C290.4 445.533 286.4 475 278.4 501.4C270.4 527.533 258.267 550.067 242 569C226 587.667 205.867 602.067 181.6 612.2C157.333 622.333 129.067 627.4 96.8 627.4C82.1333 627.4 67.6 626.467 53.2 624.6C39.0667 623 24.1333 620.333 8.4 616.6C9.46667 604.867 10.5333 593.133 11.6 581.4C12.6667 569.667 13.7333 557.933 14.8 546.2C15.6 539.8 18.1333 534.733 22.4 531C26.6667 527 32.8 525 40.8 525C45.3333 525 51.0667 525.8 58 527.4C65.2 529 74 529.8 84.4 529.8C98.8 529.8 111.333 527.8 122 523.8C132.667 519.8 141.6 513.267 148.8 504.2C156 495.133 161.333 483.4 164.8 469C168.533 454.333 170.4 436.6 170.4 415.8V40.6H290.4V413ZM564.413 202.2C595.346 202.2 623.479 207.133 648.813 217C674.146 226.867 695.879 241 714.013 259.4C732.146 277.533 746.146 299.667 756.013 325.8C765.879 351.933 770.813 381.4 770.813 414.2C770.813 447 765.879 476.6 756.013 503C746.146 529.133 732.146 551.4 714.013 569.8C695.879 588.2 674.146 602.333 648.813 612.2C623.479 622.067 595.346 627 564.413 627C533.213 627 504.813 622.067 479.213 612.2C453.879 602.333 432.146 588.2 414.013 569.8C395.879 551.4 381.746 529.133 371.613 503C361.746 476.6 356.813 447 356.813 414.2C356.813 381.4 361.746 351.933 371.613 325.8C381.746 299.667 395.879 277.533 414.013 259.4C432.146 241 453.879 226.867 479.213 217C504.813 207.133 533.213 202.2 564.413 202.2ZM564.413 544.2C595.879 544.2 619.213 533.4 634.413 511.8C649.613 489.933 657.213 457.533 657.213 414.6C657.213 371.933 649.613 339.8 634.413 318.2C619.213 296.333 595.879 285.4 564.413 285.4C532.146 285.4 508.413 296.333 493.213 318.2C478.013 339.8 470.413 371.933 470.413 414.6C470.413 457.533 478.013 489.933 493.213 511.8C508.413 533.4 532.146 544.2 564.413 544.2ZM950.531 512.2C960.931 524.2 972.131 532.6 984.131 537.4C996.398 542.2 1009.06 544.6 1022.13 544.6C1035.73 544.6 1048 542.2 1058.93 537.4C1070.13 532.333 1079.73 524.467 1087.73 513.8C1095.73 502.867 1101.86 488.733 1106.13 471.4C1110.4 454.067 1112.53 433.133 1112.53 408.6C1112.53 386.733 1110.8 368.2 1107.33 353C1103.86 337.533 1098.66 324.867 1091.73 315C1085.06 305.133 1076.8 297.933 1066.93 293.4C1057.06 288.867 1045.6 286.6 1032.53 286.6C1015.2 286.6 1000.13 290.467 987.331 298.2C974.798 305.667 962.531 316.733 950.531 331.4V512.2ZM950.531 256.2C966.798 239.933 984.798 226.867 1004.53 217C1024.26 207.133 1046.4 202.2 1070.93 202.2C1094.66 202.2 1116 207 1134.93 216.6C1154.13 225.933 1170.4 239.4 1183.73 257C1197.33 274.6 1207.73 295.933 1214.93 321C1222.4 345.8 1226.13 373.667 1226.13 404.6C1226.13 437.933 1221.86 468.333 1213.33 495.8C1205.06 523 1193.2 546.333 1177.73 565.8C1162.26 585.267 1143.73 600.333 1122.13 611C1100.8 621.667 1076.93 627 1050.53 627C1037.73 627 1026.26 625.667 1016.13 623C1006 620.6 996.665 617.133 988.131 612.6C979.598 608.067 971.731 602.733 964.531 596.6C957.331 590.2 950.531 583.133 944.131 575.4L939.731 600.2C937.865 607.933 934.798 613.4 930.531 616.6C926.265 619.533 920.531 621 913.331 621H840.131V24.6H950.531V256.2Z" fill="white"/>
<path d="M1508.36 329.4C1545.96 329.4 1573.43 320.333 1590.76 302.2C1608.36 284.067 1617.16 259.267 1617.16 227.8C1617.16 213.4 1614.9 200.333 1610.36 188.6C1606.1 176.6 1599.43 166.467 1590.36 158.2C1581.56 149.667 1570.36 143.133 1556.76 138.6C1543.16 134.067 1527.03 131.8 1508.36 131.8H1432.36V329.4H1508.36ZM1508.36 40.6C1548.1 40.6 1582.36 45.2666 1611.16 54.6C1640.23 63.9333 1664.1 77 1682.76 93.8C1701.43 110.333 1715.16 130.067 1723.96 153C1733.03 175.933 1737.56 200.867 1737.56 227.8C1737.56 256.333 1732.9 282.467 1723.56 306.2C1714.23 329.933 1700.1 350.333 1681.16 367.4C1662.23 384.467 1638.36 397.8 1609.56 407.4C1580.76 416.733 1547.03 421.4 1508.36 421.4H1432.36V621H1312.36V40.6H1508.36ZM1966.76 202.2C1997.69 202.2 2025.82 207.133 2051.16 217C2076.49 226.867 2098.22 241 2116.36 259.4C2134.49 277.533 2148.49 299.667 2158.36 325.8C2168.22 351.933 2173.16 381.4 2173.16 414.2C2173.16 447 2168.22 476.6 2158.36 503C2148.49 529.133 2134.49 551.4 2116.36 569.8C2098.22 588.2 2076.49 602.333 2051.16 612.2C2025.82 622.067 1997.69 627 1966.76 627C1935.56 627 1907.16 622.067 1881.56 612.2C1856.22 602.333 1834.49 588.2 1816.36 569.8C1798.22 551.4 1784.09 529.133 1773.96 503C1764.09 476.6 1759.16 447 1759.16 414.2C1759.16 381.4 1764.09 351.933 1773.96 325.8C1784.09 299.667 1798.22 277.533 1816.36 259.4C1834.49 241 1856.22 226.867 1881.56 217C1907.16 207.133 1935.56 202.2 1966.76 202.2ZM1966.76 544.2C1998.22 544.2 2021.56 533.4 2036.76 511.8C2051.96 489.933 2059.56 457.533 2059.56 414.6C2059.56 371.933 2051.96 339.8 2036.76 318.2C2021.56 296.333 1998.22 285.4 1966.76 285.4C1934.49 285.4 1910.76 296.333 1895.56 318.2C1880.36 339.8 1872.76 371.933 1872.76 414.6C1872.76 457.533 1880.36 489.933 1895.56 511.8C1910.76 533.4 1934.49 544.2 1966.76 544.2ZM2346.08 276.6C2359.14 253.133 2374.21 234.6 2391.28 221C2408.34 207.4 2428.34 200.6 2451.28 200.6C2469.94 200.6 2485.14 205 2496.88 213.8L2489.68 295.4C2488.34 300.733 2486.21 304.467 2483.28 306.6C2480.61 308.467 2476.88 309.4 2472.08 309.4C2467.81 309.4 2461.68 308.867 2453.68 307.8C2445.68 306.467 2438.21 305.8 2431.28 305.8C2421.14 305.8 2412.08 307.267 2404.08 310.2C2396.34 313.133 2389.41 317.267 2383.28 322.6C2377.14 327.933 2371.54 334.467 2366.48 342.2C2361.68 349.933 2357.14 358.733 2352.88 368.6V621H2242.48V208.6H2307.68C2318.88 208.6 2326.61 210.6 2330.88 214.6C2335.14 218.6 2338.21 225.533 2340.08 235.4L2346.08 276.6ZM2686.44 627.4C2667.77 627.4 2651.24 624.733 2636.84 619.4C2622.44 613.8 2610.3 605.933 2600.44 595.8C2590.57 585.667 2583.1 573.4 2578.04 559C2572.97 544.6 2570.44 528.333 2570.44 510.2V287.8H2531.64C2525.77 287.8 2520.7 285.933 2516.44 282.2C2512.44 278.467 2510.44 272.867 2510.44 265.4V222.2L2576.44 210.2L2598.84 103.4C2601.77 91.4 2609.9 85.4 2623.24 85.4H2680.84V211H2787.24V287.8H2680.84V503C2680.84 514.467 2683.5 523.533 2688.84 530.2C2694.44 536.867 2702.3 540.2 2712.44 540.2C2717.77 540.2 2722.3 539.667 2726.04 538.6C2729.77 537.267 2732.97 535.933 2735.64 534.6C2738.3 533 2740.7 531.667 2742.84 530.6C2745.24 529.267 2747.64 528.6 2750.04 528.6C2753.24 528.6 2755.9 529.4 2758.04 531C2760.17 532.333 2762.3 534.733 2764.44 538.2L2797.64 591C2782.44 603 2765.24 612.067 2746.04 618.2C2726.84 624.333 2706.97 627.4 2686.44 627.4ZM3061.98 448.6C3035.05 449.933 3012.65 452.333 2994.78 455.8C2976.91 459 2962.65 463.267 2951.98 468.6C2941.58 473.933 2934.11 480.067 2929.58 487C2925.31 493.667 2923.18 501 2923.18 509C2923.18 525 2927.58 536.333 2936.38 543C2945.45 549.667 2957.98 553 2973.98 553C2992.38 553 3008.25 549.8 3021.58 543.4C3035.18 536.733 3048.65 526.467 3061.98 512.6V448.6ZM2837.18 265.8C2861.45 243.933 2888.25 227.667 2917.58 217C2946.91 206.067 2978.65 200.6 3012.78 200.6C3037.31 200.6 3059.18 204.6 3078.38 212.6C3097.85 220.6 3114.25 231.8 3127.58 246.2C3141.18 260.333 3151.58 277.267 3158.78 297C3165.98 316.733 3169.58 338.333 3169.58 361.8V621H3119.18C3108.78 621 3100.78 619.533 3095.18 616.6C3089.85 613.667 3085.45 607.533 3081.98 598.2L3073.18 571.8C3062.78 580.867 3052.65 588.867 3042.78 595.8C3033.18 602.733 3023.18 608.6 3012.78 613.4C3002.38 617.933 2991.18 621.4 2979.18 623.8C2967.45 626.2 2954.25 627.4 2939.58 627.4C2921.45 627.4 2904.91 625 2889.98 620.2C2875.05 615.4 2862.11 608.333 2851.18 599C2840.51 589.4 2832.25 577.533 2826.38 563.4C2820.51 549.267 2817.58 533 2817.58 514.6C2817.58 499.4 2821.45 484.2 2829.18 469C2836.91 453.8 2850.11 440.067 2868.78 427.8C2887.71 415.267 2912.78 405 2943.98 397C2975.45 388.733 3014.78 384.067 3061.98 383V361.8C3061.98 335.933 3056.51 317 3045.58 305C3034.65 292.733 3018.91 286.6 2998.38 286.6C2983.18 286.6 2970.51 288.467 2960.38 292.2C2950.25 295.667 2941.31 299.533 2933.58 303.8C2926.11 307.8 2919.05 311.667 2912.38 315.4C2905.71 318.867 2897.98 320.6 2889.18 320.6C2881.45 320.6 2874.91 318.733 2869.58 315C2864.51 311 2860.25 306.333 2856.78 301L2837.18 265.8ZM3366.96 24.6V621H3256.56V24.6H3366.96Z" fill="#F57F17"/>
<rect x="3439" y="561" width="60" height="60" fill="#F57F17"/>
</svg>
